<?xml version="1.0" encoding="iso-8859-1"?>
<!-- Generator: Adobe Illustrator 18.0.0, SVG Export Plug-In . SVG Version: 6.00 Build 0)  -->
<!DOCTYPE svg PUBLIC "-//W3C//DTD SVG 1.1//EN" "http://www.w3.org/Graphics/SVG/1.1/DTD/svg11.dtd">
<svg version="1.1" id="Capa_1" xmlns="http://www.w3.org/2000/svg" xmlns:xlink="http://www.w3.org/1999/xlink" x="0px" y="0px"
	 viewBox="0 0 350.53 350.53" style="enable-background:new 0 0 350.53 350.53;" xml:space="preserve">
<g>
	<path style="fill:#0071BC;" d="M340.25,175.26c0,14.71-1.87,28.98-5.38,42.6c-5.41,21.01-14.74,40.45-27.17,57.5
		c-29.97,41.13-77.94,68.31-132.34,69.95c-1.74,0.05-3.48,0.08-5.23,0.08c-80.36,0-147.7-55.71-165.51-130.62
		C1.6,202.09,0,188.86,0,175.26C0,81.3,76.17,5.14,170.13,5.14S340.25,81.3,340.25,175.26z"/>
	<path style="fill:#F7931E;" d="M350.53,249.45c-3.91,3.38-7.97,6.54-12.19,9.46c-0.05,0.04-0.12,0.08-0.17,0.12
		c-0.63,0.43-1.26,0.85-1.9,1.28c0,0.01-0.02,0.03-0.04,0.04c-8.98,6.04-18.55,11.07-28.53,15.01c-3.9,1.55-7.87,2.93-11.89,4.15
		c-0.14-0.28-0.34-0.53-0.57-0.77l-11.25-11.24c-1.56-1.57-3.61-2.35-5.66-2.35s-4.09,0.78-5.66,2.35c-3.13,3.12-3.13,8.19,0,11.32
		l4.97,4.98c-11.68,2-23.63,2.63-35.64,1.81l-10.73-0.75l-4.61-0.3c-0.38-0.04-0.77-0.06-1.15-0.1c-8.08-0.62-15.95-1.98-23.56-3.99
		l-26.59,64.84c-1.74,0.05-3.48,0.08-5.23,0.08c-80.36,0-147.7-55.71-165.51-130.62l71.42-98.41c18.05-24.86,46.91-39.57,77.6-39.57
		h0.56c65.23-3.8,126.44,31.72,155.47,90.27l25.2,50.8l7.7,15.53l1.1,2.25L350.53,249.45z"/>
	<path style="fill:#DD7F22;" d="M246.957,207.067c-17.066,0-31.48-13.341-32.815-30.372l-1.972-25.188l25.187-1.973
		c0.863-0.067,1.737-0.102,2.6-0.102c17.068,0,31.482,13.341,32.815,30.373l1.974,25.188l-25.188,1.973
		C248.693,207.033,247.819,207.067,246.957,207.067z"/>
	<path style="fill:#4D4D4D;" d="M266.144,197.641l-17.212,1.348c-13.734,1.076-25.739-9.186-26.815-22.919l-1.348-17.212
		l17.212-1.348c13.734-1.076,25.739,9.186,26.815,22.919L266.144,197.641z"/>
	<path style="fill:#4D4D4D;" d="M350.53,249.448c-3.909,3.384-7.973,6.538-12.189,9.462c-2.026-2.618-3.231-5.892-3.231-9.462
		c0-6.056,3.482-11.291,8.564-13.81L350.53,249.448z"/>
	<path style="fill:#F7931E;" d="M195.641,42.618l0.447,12.738l1.77,50.669l-47.125,18.505l-23.358,9.166l5.988-52.032
		c2.207-19.191,15.897-35.091,34.546-40.134l19.222-5.198C191.326,35.203,195.492,38.266,195.641,42.618z"/>
	<path style="fill:#C66A18;" d="M196.088,55.356l1.77,50.669l-47.125,18.505l3.105-26.957c2.207-19.191,15.897-35.091,34.546-40.134
		L196.088,55.356z"/>
	<path style="fill:#DD7F22;" d="M201.95,280.47c0,0-44.33-19.94-54.33-52.94c0,0-0.15,52.118,47.925,68.559L201.95,280.47z"/>
</g>
<g>
</g>
<g>
</g>
<g>
</g>
<g>
</g>
<g>
</g>
<g>
</g>
<g>
</g>
<g>
</g>
<g>
</g>
<g>
</g>
<g>
</g>
<g>
</g>
<g>
</g>
<g>
</g>
<g>
</g>
</svg>
