<?xml version="1.0" encoding="iso-8859-1"?>
<!-- Generator: Adobe Illustrator 19.0.0, SVG Export Plug-In . SVG Version: 6.00 Build 0)  -->
<svg version="1.1" id="Layer_1" xmlns="http://www.w3.org/2000/svg" xmlns:xlink="http://www.w3.org/1999/xlink" x="0px" y="0px"
	 viewBox="0 0 460 460" style="enable-background:new 0 0 460 460;" xml:space="preserve">
<g>
	<g id="XMLID_118_">
		<g>
			<path style="fill:#FFD248;" d="M160,440c0,5.5-4.5,10-10,10H30c-5.5,0-10-4.5-10-10v-20c0-5.5,4.5-10,10-10h120
				c5.5,0,10,4.5,10,10V440z"/>
			<path style="fill:#FCBD47;" d="M160,400c0,5.5-4.5,10-10,10H30c-5.5,0-10-4.5-10-10v-20c0-5.5,4.5-10,10-10h120
				c5.5,0,10,4.5,10,10V400z"/>
			<path style="fill:#FFD248;" d="M160,360c0,5.5-4.5,10-10,10H30c-5.5,0-10-4.5-10-10v-20c0-5.5,4.5-10,10-10h120
				c5.5,0,10,4.5,10,10V360z"/>
			<path style="fill:#FCBD47;" d="M160,320c0,5.5-4.5,10-10,10H30c-5.5,0-10-4.5-10-10v-20c0-5.5,4.5-10,10-10h120
				c5.5,0,10,4.5,10,10V320z"/>
			<path style="fill:#FFD248;" d="M160,280c0,5.5-4.5,10-10,10H30c-5.5,0-10-4.5-10-10v-20c0-5.5,4.5-10,10-10h120
				c5.5,0,10,4.5,10,10V280z"/>
			<path style="fill:#FFD248;" d="M300,140v20c0,5.5-4.5,10-10,10H170c-5.5,0-10-4.5-10-10v-20c0-5.5,4.5-10,10-10h120
				C295.5,130,300,134.5,300,140z"/>
			<path style="fill:#FCBD47;" d="M300,180v20c0,5.5-4.5,10-10,10H170c-5.5,0-10-4.5-10-10v-20c0-5.5,4.5-10,10-10h120
				C295.5,170,300,174.5,300,180z"/>
			<path style="fill:#FFD248;" d="M300,220v20c0,5.5-4.5,10-10,10H170c-5.5,0-10-4.5-10-10v-20c0-5.5,4.5-10,10-10h120
				C295.5,210,300,214.5,300,220z"/>
			<path style="fill:#FCBD47;" d="M300,260v20c0,5.5-4.5,10-10,10H170c-5.5,0-10-4.5-10-10v-20c0-5.5,4.5-10,10-10h120
				C295.5,250,300,254.5,300,260z"/>
			<path style="fill:#FFD248;" d="M300,300v20c0,5.5-4.5,10-10,10H170c-5.5,0-10-4.5-10-10v-20c0-5.5,4.5-10,10-10h120
				C295.5,290,300,294.5,300,300z"/>
			<path style="fill:#FCBD47;" d="M300,340v20c0,5.5-4.5,10-10,10H170c-5.5,0-10-4.5-10-10v-20c0-5.5,4.5-10,10-10h120
				C295.5,330,300,334.5,300,340z"/>
			<path style="fill:#FFD248;" d="M300,380v20c0,5.5-4.5,10-10,10H170c-5.5,0-10-4.5-10-10v-20c0-5.5,4.5-10,10-10h120
				C295.5,370,300,374.5,300,380z"/>
			<path style="fill:#FCBD47;" d="M300,420v20c0,5.5-4.5,10-10,10H170c-5.5,0-10-4.5-10-10v-20c0-5.5,4.5-10,10-10h120
				C295.5,410,300,414.5,300,420z"/>
			<path style="fill:#FFD248;" d="M440,420v20c0,5.5-4.5,10-10,10H310c-5.5,0-10-4.5-10-10v-20c0-5.5,4.5-10,10-10h120
				C435.5,410,440,414.5,440,420z"/>
			<path style="fill:#FCBD47;" d="M440,380v20c0,5.5-4.5,10-10,10H310c-5.5,0-10-4.5-10-10v-20c0-5.5,4.5-10,10-10h120
				C435.5,370,440,374.5,440,380z"/>
			<path style="fill:#FFD248;" d="M440,340v20c0,5.5-4.5,10-10,10H310c-5.5,0-10-4.5-10-10v-20c0-5.5,4.5-10,10-10h120
				C435.5,330,440,334.5,440,340z"/>
			<path style="fill:#FCBD47;" d="M440,300v20c0,5.5-4.5,10-10,10H310c-5.5,0-10-4.5-10-10v-20c0-5.5,4.5-10,10-10h120
				C435.5,290,440,294.5,440,300z"/>
			<path style="fill:#FFD248;" d="M440,260v20c0,5.5-4.5,10-10,10H310c-5.5,0-10-4.5-10-10v-20c0-5.5,4.5-10,10-10h120
				C435.5,250,440,254.5,440,260z"/>
			<path style="fill:#FCBD47;" d="M440,220v20c0,5.5-4.5,10-10,10H310c-5.5,0-10-4.5-10-10v-20c0-5.5,4.5-10,10-10h120
				C435.5,210,440,214.5,440,220z"/>
			<path style="fill:#FFD248;" d="M440,180v20c0,5.5-4.5,10-10,10H310c-5.5,0-10-4.5-10-10v-20c0-5.5,4.5-10,10-10h120
				C435.5,170,440,174.5,440,180z"/>
			<path style="fill:#FCBD47;" d="M440,140v20c0,5.5-4.5,10-10,10H310c-5.5,0-10-4.5-10-10v-20c0-5.5,4.5-10,10-10h120
				C435.5,130,440,134.5,440,140z"/>
			<path style="fill:#FFD248;" d="M440,100v20c0,5.5-4.5,10-10,10H310c-5.5,0-10-4.5-10-10v-20c0-5.5,4.5-10,10-10h120
				C435.5,90,440,94.5,440,100z"/>
			<path style="fill:#FCBD47;" d="M440,60v20c0,5.5-4.5,10-10,10H310c-5.5,0-10-4.5-10-10V60c0-5.5,4.5-10,10-10h120
				C435.5,50,440,54.5,440,60z"/>
			<path style="fill:#FFD248;" d="M440,20v20c0,5.5-4.5,10-10,10H310c-5.5,0-10-4.5-10-10V20c0-5.5,4.5-10,10-10h120
				C435.5,10,440,14.5,440,20z"/>
		</g>
		<path style="fill:#231F20;" d="M450,20c0-11.028-8.972-20-20-20H310c-11.028,0-20,8.972-20,20v20c0,3.645,0.996,7.054,2.706,10
			c-1.71,2.946-2.706,6.355-2.706,10v20c0,3.645,0.996,7.054,2.706,10c-1.71,2.946-2.706,6.355-2.706,10v20H170
			c-11.028,0-20,8.972-20,20v20c0,3.645,0.996,7.054,2.706,10c-1.71,2.946-2.706,6.355-2.706,10v20c0,3.645,0.996,7.054,2.706,10
			c-1.71,2.946-2.706,6.355-2.706,10v20H30c-11.028,0-20,8.972-20,20v20c0,3.645,0.996,7.054,2.706,10
			c-1.71,2.946-2.706,6.355-2.706,10v20c0,3.645,0.996,7.054,2.706,10c-1.71,2.946-2.706,6.355-2.706,10v20
			c0,3.645,0.996,7.054,2.706,10c-1.71,2.946-2.706,6.355-2.706,10v20c0,3.645,0.996,7.054,2.706,10
			c-1.71,2.946-2.706,6.355-2.706,10v20c0,11.028,8.972,20,20,20h120c3.645,0,7.054-0.996,10-2.706c2.946,1.71,6.355,2.706,10,2.706
			h120c3.645,0,7.054-0.996,10-2.706c2.946,1.71,6.355,2.706,10,2.706h120c11.028,0,20-8.972,20-20v-20
			c0-3.645-0.996-7.054-2.706-10c1.71-2.946,2.706-6.355,2.706-10v-20c0-3.645-0.996-7.054-2.706-10
			c1.71-2.946,2.706-6.355,2.706-10v-20c0-3.645-0.996-7.054-2.706-10c1.71-2.946,2.706-6.355,2.706-10v-20
			c0-3.645-0.996-7.054-2.706-10c1.71-2.946,2.706-6.355,2.706-10v-20c0-3.645-0.996-7.054-2.706-10
			c1.71-2.946,2.706-6.355,2.706-10v-20c0-3.645-0.996-7.054-2.706-10c1.71-2.946,2.706-6.355,2.706-10v-20
			c0-3.645-0.996-7.054-2.706-10c1.71-2.946,2.706-6.355,2.706-10v-20c0-3.645-0.996-7.054-2.706-10
			c1.71-2.946,2.706-6.355,2.706-10v-20c0-3.645-0.996-7.054-2.706-10c1.71-2.946,2.706-6.355,2.706-10V60
			c0-3.645-0.996-7.054-2.706-10c1.71-2.946,2.706-6.355,2.706-10V20z M310,20h120l0.002,20H310V20z M430,80H310V60h120V80z
			 M430,120H310v-20h120V120z M430,160H310v-20h120V160z M430,200H310v-20h120V200z M430,240H310v-20h120V240z M430,280H310v-20h120
			V280z M430,320H310v-20h120V320z M430,360H310v-20h120V360z M430,400H310v-20h120V400z M30,380h120v20H30V380z M30,340h120v20H30
			V340z M30,300h120v20H30V300z M170,220h120v20H170V220z M170,180h120v20H170V180z M170,260h120v20H170V260z M290,320H170v-20h120
			V320z M290,360H170v-20h120V360z M170,380h120v20H170V380z M170,140h120v20H170V140z M30,260h120v20H30V260z M30,440v-20h120v20
			H30z M170,440v-20h120v20H170z M430,440H310v-20h120V440z"/>
	</g>
</g>
<g>
</g>
<g>
</g>
<g>
</g>
<g>
</g>
<g>
</g>
<g>
</g>
<g>
</g>
<g>
</g>
<g>
</g>
<g>
</g>
<g>
</g>
<g>
</g>
<g>
</g>
<g>
</g>
<g>
</g>
</svg>
