<?xml version="1.0" encoding="iso-8859-1"?>
<!-- Generator: Adobe Illustrator 18.0.0, SVG Export Plug-In . SVG Version: 6.00 Build 0)  -->
<!DOCTYPE svg PUBLIC "-//W3C//DTD SVG 1.1//EN" "http://www.w3.org/Graphics/SVG/1.1/DTD/svg11.dtd">
<svg version="1.1" id="Capa_1" xmlns="http://www.w3.org/2000/svg" xmlns:xlink="http://www.w3.org/1999/xlink" x="0px" y="0px"
	 viewBox="0 0 340.77 340.77" style="enable-background:new 0 0 340.77 340.77;" xml:space="preserve">
<g>
	<path style="fill:#7CCFED;" d="M340.31,170.39c0,72.39-45.21,134.22-108.93,158.8c-19,7.33-39.64,11.35-61.22,11.35
		c-54.39,0-102.81-25.51-133.96-65.23c-4.95-6.31-9.47-12.98-13.49-19.96C8.26,230.35,0,201.33,0,170.39
		C0,76.41,76.18,0.23,170.16,0.23C264.13,0.23,340.31,76.41,340.31,170.39z"/>
	<path style="fill:#4D4D4D;" d="M190.63,113.46C152.87,183.96,77.92,244.97,36.2,275.31c-4.95-6.31-9.47-12.98-13.49-19.96
		c34.18-71.55,92.62-142.12,92.62-142.12l4.6-23.91c0.14-0.73,0.29-1.46,0.46-2.18c3.96-17.47,14.56-31.42,28.41-40.22
		C139.83,68.71,128,115.1,190.63,113.46z"/>
	<path style="fill:#E6E6E6;" d="M231.38,329.19c-19,7.33-39.64,11.35-61.22,11.35c-54.39,0-102.81-25.51-133.96-65.23
		c41.72-30.34,116.67-91.35,154.43-161.85c5.44-0.14,11.43-0.64,18.04-1.56c-0.04,0.74-0.06,1.47-0.06,2.2
		C208.61,127.2,231.38,329.19,231.38,329.19z"/>
	<path style="fill:#4D4D4D;" d="M340.77,70.56c-18.95-1.07-35.21-0.73-49.17,0.59c0,0-0.01,0-0.02,0
		c-32.31,3.07-52.25,11.42-64.43,19.76c-4.26,2.92-7.56,5.83-10.12,8.52c-6.66,7-8.26,12.47-8.26,12.47
		c-15.56,2.15-27.73,2.03-37.17,0.26c-17.75-14.41,24.49-40.93-0.83-52.93c-13.4-6.34-21.95-2.07-27.03,3.38
		c1.4-5.84,3.34-11.27,5.16-15.69c10.57-6.73,23.04-10.46,35.88-10.46c8.38,0,16.91,1.59,25.18,4.96c13.77,5.61,28.4,8.76,43.26,9.3
		l42.26,1.56C312.25,52.89,328.27,59.36,340.77,70.56z"/>
	<path style="fill:#C1676E;" d="M170.77,59.23c25.32,12-16.92,38.52,0.83,52.93c-31.39-5.87-32.59-29.99-27.86-49.55
		C148.82,57.16,157.37,52.89,170.77,59.23z"/>
	<path style="fill:#1A1A1A;" d="M209.572,66.197l-15.987-0.733c-6.012-0.174-10.746-5.188-10.572-11.201v0L199,54.996
		C205.012,55.17,209.746,60.184,209.572,66.197L209.572,66.197z"/>
	<path style="fill:#C1676E;" d="M291.58,71.15c-32.31,3.07-52.25,11.42-64.43,19.76c-4.26,2.92-7.56,5.83-10.12,8.52
		c-9.76,0.42-14.05-1.6-7.7-7.87C233.05,68.17,290.26,71.08,291.58,71.15z"/>
</g>
<g>
</g>
<g>
</g>
<g>
</g>
<g>
</g>
<g>
</g>
<g>
</g>
<g>
</g>
<g>
</g>
<g>
</g>
<g>
</g>
<g>
</g>
<g>
</g>
<g>
</g>
<g>
</g>
<g>
</g>
</svg>
