<?xml version="1.0" encoding="iso-8859-1"?>
<!-- Generator: Adobe Illustrator 18.0.0, SVG Export Plug-In . SVG Version: 6.00 Build 0)  -->
<!DOCTYPE svg PUBLIC "-//W3C//DTD SVG 1.1//EN" "http://www.w3.org/Graphics/SVG/1.1/DTD/svg11.dtd">
<svg version="1.1" id="Capa_1" xmlns="http://www.w3.org/2000/svg" xmlns:xlink="http://www.w3.org/1999/xlink" x="0px" y="0px"
	 viewBox="0 0 372.13 372.13" style="enable-background:new 0 0 372.13 372.13;" xml:space="preserve">
<g>
	<circle style="fill:#4D4D4D;" cx="170.125" cy="186.065" r="170.125"/>
	<path style="fill:#B4D87D;" d="M352.31,161.38c-4.69-0.59-9.39-1.15-14.09-1.69c-45.1-5.2-90.43-8.34-135.82-9.39
		c-10.86-0.26-21.73-0.39-32.59-0.41H40.8L0.93,168.17C0.31,174.05,0,180.02,0,186.06c0,6.75,0.39,13.41,1.16,19.96
		c1.28,11,3.62,21.68,6.9,31.93c2.71,8.47,6.06,16.65,10,24.48c0.09,0.17,0.17,0.33,0.25,0.49c4.88,9.63,10.66,18.73,17.21,27.19
		h244.77c10.581,0,19.447-7.299,21.852-17.137H252.35c0-5.823,4.72-10.543,10.543-10.543h51.627c2.71,0,5.39-0.23,8-0.67
		c18-3.04,33.01-16.18,38.11-34.2l10.64-37.58c0.59-2.07,0.86-4.15,0.86-6.18C372.13,172.73,363.92,162.83,352.31,161.38z"/>
	<circle style="fill:#FFFFFF;" cx="291.174" cy="210.094" r="22.686"/>
	<circle style="fill:#4D4D4D;" cx="291.174" cy="210.094" r="9.634"/>
	<path style="fill:#B4D87D;" d="M80.55,228.83v101.88c-17.33-10.75-32.59-24.53-45.03-40.6c-6.55-8.46-12.33-17.56-17.21-27.19
		c-0.08-0.16-0.16-0.32-0.25-0.49c-0.64-1.27-1.26-2.55-1.87-3.84L80.55,228.83z"/>
	<path style="fill:#EFA245;" d="M205.35,127.64l-35.54,22.25l-19.91,28.38L29.96,282.51c-3.26-4.73-6.3-9.65-9.08-14.72
		c-0.88-1.6-1.74-3.23-2.57-4.87c-0.08-0.16-0.16-0.32-0.25-0.49c-0.64-1.27-1.26-2.55-1.87-3.84c-3.14-6.65-5.86-13.54-8.13-20.64
		c-3.25-10.16-5.58-20.74-6.87-31.64c-0.01-0.1-0.02-0.2-0.03-0.29C0.39,199.47,0,192.81,0,186.06c0-6.04,0.31-12.01,0.93-17.89
		C5.01,129.12,22.3,94.01,48.26,67.36c74.38,0.38,122.75,32.43,138.74,44.87C190.86,115.23,205.35,127.64,205.35,127.64z"/>
	<path style="fill:#B76C34;" d="M217.303,140.52L37.7,292.85c-0.74-0.91-1.47-1.82-2.18-2.74c-5.44-7.02-10.34-14.48-14.64-22.32
		l177.025-150.142c6.315-5.356,15.777-4.579,21.134,1.736l0,0C224.397,125.7,223.62,135.163,217.303,140.52z"/>
</g>
<g>
</g>
<g>
</g>
<g>
</g>
<g>
</g>
<g>
</g>
<g>
</g>
<g>
</g>
<g>
</g>
<g>
</g>
<g>
</g>
<g>
</g>
<g>
</g>
<g>
</g>
<g>
</g>
<g>
</g>
</svg>
