<?xml version="1.0" encoding="iso-8859-1"?>
<!-- Generator: Adobe Illustrator 18.0.0, SVG Export Plug-In . SVG Version: 6.00 Build 0)  -->
<!DOCTYPE svg PUBLIC "-//W3C//DTD SVG 1.1//EN" "http://www.w3.org/Graphics/SVG/1.1/DTD/svg11.dtd">
<svg version="1.1" id="Capa_1" xmlns="http://www.w3.org/2000/svg" xmlns:xlink="http://www.w3.org/1999/xlink" x="0px" y="0px"
	 viewBox="0 0 371.734 371.734" style="enable-background:new 0 0 371.734 371.734;" xml:space="preserve">
<g>
	<path style="fill:#00A99D;" d="M340.25,185.862c0,12.08-1.26,23.86-3.66,35.23c-3.88,18.46-10.76,35.81-20.1,51.54
		c-29.65,49.91-84.1,83.36-146.36,83.36c-45.93,0-87.6-18.2-118.21-47.78C19.91,277.282,0,233.892,0,185.862
		c0-22.01,4.18-43.05,11.79-62.36c24.88-63.11,86.39-107.76,158.34-107.76C264.08,15.742,340.25,91.902,340.25,185.862z"/>
	<path style="fill:#F2F2F2;" d="M371.73,237.652l-18.72,18.72l-5.19,5.2c-8.35,8.35-19.89,12.28-31.33,11.06
		c-2.57-0.27-5.13-0.81-7.65-1.61c-45.61-14.55-156.04-37.45-256.92,37.19c-7.44-7.19-14.23-15.06-20.27-23.51
		C11.72,256.842,0,222.722,0,185.862c0-22.01,4.18-43.05,11.79-62.36h147.37c34.1,0,66.79,13.2,91.51,36.67
		c19.22,18.26,47.44,40.68,85.92,60.92c3.59,1.89,7.28,3.76,11.05,5.61C355.29,230.482,363.32,234.142,371.73,237.652z"/>
	<path style="fill:#666666;" d="M325.46,232.742c0,0-31.82,2.22-87.76-17.72c-33.7-12.01-70.18-14.99-105-6.78
		c-22.12,5.21-73.26,29.02-101.05,76.46C11.72,256.842,0,222.722,0,185.862c0-22.01,4.18-43.05,11.79-62.36h71.97l92.94,27.15
		c34.72,10.15,67.28,26.52,96.33,48.07C291.65,212.542,312.38,226.882,325.46,232.742z"/>
	<path style="fill:#F2F2F2;" d="M209.318,175.656c0,0-14.97-29.393-32.325-15.857c-16.667,13,13.623,39.48,13.623,39.48
		s-20.957-24.646-3.957-34.646C196.318,158.951,209.318,175.656,209.318,175.656z"/>
	<path style="fill:#4D4D4D;" d="M345.277,237.656c0,7.293,2.953,13.908,7.737,18.721l18.721-18.721
		c-8.415-3.514-16.447-7.176-24.095-10.955C346.133,230.037,345.277,233.758,345.277,237.656z"/>
	<circle style="fill:#4D4D4D;" cx="249.327" cy="201.132" r="7.667"/>
</g>
<g>
</g>
<g>
</g>
<g>
</g>
<g>
</g>
<g>
</g>
<g>
</g>
<g>
</g>
<g>
</g>
<g>
</g>
<g>
</g>
<g>
</g>
<g>
</g>
<g>
</g>
<g>
</g>
<g>
</g>
</svg>
