<?xml version="1.0" encoding="iso-8859-1"?>
<!-- Generator: Adobe Illustrator 19.0.0, SVG Export Plug-In . SVG Version: 6.00 Build 0)  -->
<svg version="1.1" id="Layer_1" xmlns="http://www.w3.org/2000/svg" xmlns:xlink="http://www.w3.org/1999/xlink" x="0px" y="0px"
	 viewBox="0 0 512 512" style="enable-background:new 0 0 512 512;" xml:space="preserve">
<circle style="fill:#386895;" cx="256" cy="256" r="256"/>
<g>
	<polygon style="fill:#273B7A;" points="171.456,59.092 322.813,210.449 270.941,235.313 194.227,235.313 	"/>
	<path style="fill:#273B7A;" d="M505.163,197.032L365.897,57.775c-27.576,86.404-47.488,178.362-121.965,239.599
		c-29.306,22.411-60.337,41.374-77.576,72.404c-4.948,8.906-11.638,15.996-18.037,23.45l118.458,118.531
		C403.161,506.108,512,393.773,512,256C512,235.704,509.626,215.966,505.163,197.032z"/>
</g>
<path style="fill:#E8887C;" d="M312.189,263.689c-24.083-5.399-35.659-45.216-25.855-88.936
	c6.778-30.229,39.722-79.498,59.408-107.027c7.639-10.681,17.442-8.483,19.789,4.436c6.046,33.297,14.796,91.913,8.016,122.142
	C363.744,238.023,336.272,269.088,312.189,263.689z"/>
<path style="fill:#E8E8E8;" d="M317.74,271.329c-2.37,0-4.737-0.257-7.089-0.784l0,0c-14.258-3.196-25.214-15.624-30.844-34.992
	c-5.208-17.918-5.325-40.055-0.328-62.336c6.721-29.986,36.636-76.138,60.547-109.577c5.365-7.501,12.348-10.928,19.134-9.4
	c6.794,1.524,11.636,7.599,13.283,16.668c7.344,40.445,14.686,94.949,7.959,124.933C370.486,240.064,343.904,271.329,317.74,271.329
	z M313.725,256.833c19.927,4.443,44.179-24.876,52.967-64.067c6.537-29.146-2.253-87.287-8.075-119.349
	c-0.765-4.218-2.269-5.408-2.534-5.467c-0.241-0.071-2.127,0.367-4.627,3.863c-18.956,26.508-51.733,75.33-58.268,104.476
	c-4.487,20.006-4.448,39.66,0.11,55.341C297.436,245.857,304.69,254.809,313.725,256.833L313.725,256.833z"/>
<path style="fill:#FFAD9E;" d="M203.276,263.689c24.083-5.399,35.659-45.216,25.855-88.936
	c-6.778-30.229-39.722-79.498-59.408-107.027c-7.639-10.681-17.442-8.483-19.789,4.436c-6.046,33.297-14.796,91.913-8.016,122.142
	C151.721,238.023,179.193,269.088,203.276,263.689z"/>
<g>
	<path style="fill:#FFFFFF;" d="M197.723,271.329c-26.162,0-52.745-31.261-62.662-75.488c-6.725-29.984,0.615-84.489,7.959-124.935
		c1.646-9.068,6.489-15.143,13.283-16.667c6.789-1.527,13.769,1.903,19.134,9.399c23.911,33.439,53.826,79.593,60.547,109.577
		c4.996,22.281,4.88,44.42-0.328,62.336c-5.63,19.368-16.584,31.794-30.844,34.992l0,0
		C202.462,271.07,200.094,271.329,197.723,271.329z M159.435,67.944c-0.024,0-0.041,0.002-0.055,0.005
		c-0.264,0.059-1.767,1.248-2.534,5.467c-5.822,32.065-14.612,90.203-8.075,119.349c8.79,39.193,33.061,68.52,52.967,64.067
		c9.035-2.026,16.289-10.976,20.425-25.203c4.56-15.681,4.598-35.333,0.11-55.341c-6.535-29.146-39.312-77.969-58.268-104.477
		C161.645,68.508,159.844,67.944,159.435,67.944z"/>
	<path style="fill:#FFFFFF;" d="M400.808,311.101c0,67.836-64.833,122.828-144.808,122.828s-144.808-54.993-144.808-122.828
		S176.025,211.113,256,211.113S400.808,243.266,400.808,311.101z"/>
</g>
<path style="fill:#E8E8E8;" d="M400.808,311.101c0-67.755-64.678-99.907-144.52-99.985v222.808
	C336.131,433.792,400.808,378.856,400.808,311.101z"/>
<g>
	<circle style="fill:#1E262B;" cx="186.044" cy="350.108" r="8.189"/>
	<circle style="fill:#1E262B;" cx="325.956" cy="350.108" r="8.189"/>
</g>
<path style="fill:#FF6262;" d="M269.36,363.701H242.64c-3.808,0-6.896,3.087-6.896,6.896c0,3.808,3.088,6.896,6.896,6.896h6.465
	v29.737c0,3.808,3.088,6.896,6.896,6.896c3.808,0,6.896-3.087,6.896-6.896v-29.737h6.465c3.808,0,6.896-3.087,6.896-6.896
	C276.256,366.789,273.168,363.701,269.36,363.701z"/>
<path style="fill:#F24C4C;" d="M269.36,363.701h-13.072v50.395c3.672-0.153,6.608-3.156,6.608-6.866v-29.737h6.465
	c3.808,0,6.896-3.087,6.896-6.896C276.256,366.789,273.168,363.701,269.36,363.701z"/>
<g>
</g>
<g>
</g>
<g>
</g>
<g>
</g>
<g>
</g>
<g>
</g>
<g>
</g>
<g>
</g>
<g>
</g>
<g>
</g>
<g>
</g>
<g>
</g>
<g>
</g>
<g>
</g>
<g>
</g>
</svg>
